PathFileType	4	(X/Y/Z)	outputs\dynamic_markers.trc
DataRate	CameraRate	NumFrames	NumMarkers	Units	OrigDataRate	OrigDataStartFrame	OrigNumFrames
360.000000	360.000000	4	45	m	360.000000	535	612
Frame#	Time	C7			CLAV			LANK			LASI			LBHD			LELB			LFHD			LFIN			LFRM			LHEE			LKNE			LMANK			LMELB			LMKNE			LPSI			LSHO			LTHI			LTIB			LTOE			LUPA			LWRA			LWRB			RANK			RASI			RBAK			RBHD			RELB			RFHD			RFIN			RFRM			RHEE			RKNE			RMANK			RMELB			RMKNE			RPSI			RSHO			RTHI			RTIB			RTOE			RUPA			RWRA			RWRB			STRN			T10			
		X1	Y1	Z1	X2	Y2	Z2	X3	Y3	Z3	X4	Y4	Z4	X5	Y5	Z5	X6	Y6	Z6	X7	Y7	Z7	X8	Y8	Z8	X9	Y9	Z9	X10	Y10	Z10	X11	Y11	Z11	X12	Y12	Z12	X13	Y13	Z13	X14	Y14	Z14	X15	Y15	Z15	X16	Y16	Z16	X17	Y17	Z17	X18	Y18	Z18	X19	Y19	Z19	X20	Y20	Z20	X21	Y21	Z21	X22	Y22	Z22	X23	Y23	Z23	X24	Y24	Z24	X25	Y25	Z25	X26	Y26	Z26	X27	Y27	Z27	X28	Y28	Z28	X29	Y29	Z29	X30	Y30	Z30	X31	Y31	Z31	X32	Y32	Z32	X33	Y33	Z33	X34	Y34	Z34	X35	Y35	Z35	X36	Y36	Z36	X37	Y37	Z37	X38	Y38	Z38	X39	Y39	Z39	X40	Y40	Z40	X41	Y41	Z41	X42	Y42	Z42	X43	Y43	Z43	X44	Y44	Z44	X45	Y45	Z45	

536	1.486111111111111	1.513399362564087	1.31194281578064	-0.1221812665462494	1.575554847717285	1.145018458366394	-0.1371316909790039	1.657140016555786	-0.01056946162134409	0.04072357714176178	1.345564723014832	0.8292112350463867	0.07691425830125809	1.546529173851013	1.328826189041138	-0.2806553244590759	1.202002048492432	0.8741623163223267	-0.1036624535918236	1.689982175827026	1.302829623222351	-0.3395116329193115	1.574950456619263	0.8697754144668579	-0.125368595123291	1.348926305770874	0.8328602313995361	-0.1372149288654327	1.585613608360291	-0.01324979681521654	0.08650822937488556	1.467982292175293	0.4153376519680023	0.05937056988477707	1.640187859535217	-0.02029743231832981	0.1483854353427887	1.213292121887207	0.9099199771881104	-0.01752865687012672	1.483945250511169	0.4118090271949768	0.1657004505395889	1.147635459899902	0.962078869342804	0.1482847630977631	1.413069128990173	1.180987238883972	-0.2501434087753296	1.376836061477661	0.5293644666671753	0.0289689265191555	1.47663426399231	0.3070253729820251	0.03226599842309952	1.811330914497375	-0.024514215067029	0.1116377860307693	1.264858603477478	0.9923080801963806	-0.1929087340831757	1.458748459815979	0.8170913457870483	-0.142213374376297	1.468871355056763	0.8213458061218262	-0.05976569652557373	0.5929037928581238	0.3732126951217651	0.4583880305290222	1.3801429271698	0.9008059501647949	0.293084979057312	1.455908298492432	1.22904646396637	0.1416393667459488	1.599362850189209	1.392160654067993	-0.1800659000873566	1.808731198310852	0.9025006294250488	-0.06964360922574997	1.745360136032104	1.372997283935547	-0.2323450893163681	1.83170223236084	0.6849632263183594	-0.3530783653259277	1.822588324546814	0.8050110340118408	-0.2207546681165695	0.637450098991394	0.4034410119056702	0.3785958290100098	1.086829662322998	0.5091738700866699	0.5296196341514587	0.6486875414848328	0.2944482862949371	0.3982175886631012	1.724624633789062	0.8747062087059021	-0.05022985860705376	1.083890199661255	0.4301985204219818	0.4324739873409271	1.17132842540741	0.9861766695976257	0.2133979052305222	1.685883164405823	1.240874290466309	-0.006244269199669361	1.217557430267334	0.7397675514221191	0.417326807975769	0.9160387516021729	0.4799162447452545	0.5243670344352722	0.5874583721160889	0.2044333219528198	0.4891729354858398	1.769317746162415	1.066231489181519	-0.0361446887254715	1.791241765022278	0.7464303374290466	-0.324599415063858	1.808082461357117	0.6895090937614441	-0.2601763010025024	1.491697311401367	0.9614466428756714	0.008350404910743237	1.27010452747345	1.136252760887146	0.1112147271633148	
537	1.488888888888889	1.517448425292969	1.311922788619995	-0.123303011059761	1.57766330242157	1.146115779876709	-0.1404492110013962	1.65705394744873	-0.0107279596850276	0.04066168516874313	1.34700882434845	0.8292900323867798	0.0739453136920929	1.547894954681396	1.332888126373291	-0.27924445271492	1.198117733001709	0.8817876577377319	-0.1066659837961197	1.690690636634827	1.310120224952698	-0.3407449126243591	1.570403337478638	0.8678660988807678	-0.1281328052282333	1.343713998794556	0.8362945914268494	-0.1398177295923233	1.585569739341736	-0.01334534306079149	0.08650059252977371	1.468499541282654	0.4149791300296783	0.05882547795772552	1.640178680419922	-0.02035224623978138	0.1483961343765259	1.210013031959534	0.9178509712219238	-0.01973495073616505	1.484431982040405	0.4110895395278931	0.1651096940040588	1.151022791862488	0.9629940390586853	0.1486521065235138	1.415287733078003	1.184252381324768	-0.2507862448692322	1.378659605979919	0.5288164615631104	0.02859368734061718	1.476640105247498	0.3068500459194183	0.03180910646915436	1.811305403709412	-0.02451944723725319	0.111488088965416	1.263643741607666	0.9987877607345581	-0.194941520690918	1.45297908782959	0.8178510665893555	-0.1448844969272614	1.463535904884338	0.821397066116333	-0.06245776265859604	0.5967827439308167	0.3817545473575592	0.4631948173046112	1.384757041931152	0.900032103061676	0.2895983159542084	1.46077835559845	1.228781700134277	0.1411785483360291	1.601650476455688	1.393087267875671	-0.1770543903112411	1.801371335983276	0.8954631686210632	-0.07435327768325806	1.746872901916504	1.376849412918091	-0.2318545877933502	1.807458877563477	0.6756843328475952	-0.35738804936409	1.806612133979797	0.7962482571601868	-0.2246114909648895	0.6408676505088806	0.4113551080226898	0.3826791942119598	1.092015147209167	0.5112552642822266	0.5321570038795471	0.6507791876792908	0.3022904098033905	0.4019345641136169	1.717415571212769	0.870796263217926	-0.05074610933661461	1.088163256645203	0.4319734871387482	0.4360231161117554	1.174862742424011	0.9871935844421387	0.2135932594537735	1.690137982368469	1.238797545433044	-0.009121530689299107	1.222594499588013	0.7405986189842224	0.4167629182338715	0.9211830496788025	0.4837524890899658	0.5277681350708008	0.5891700387001038	0.2129407525062561	0.493532657623291	1.767930030822754	1.061108469963074	-0.04090536758303642	1.768953323364258	0.7376212477684021	-0.3261996209621429	1.788977265357971	0.6812757849693298	-0.2624331116676331	1.491986393928528	0.960896372795105	0.004280313849449158	1.274312257766724	1.137725234031677	0.111735574901104	
538	1.491666666666667	1.521383881568909	1.312338829040527	-0.1246408969163895	1.57965874671936	1.1470947265625	-0.1434060037136078	1.656917572021484	-0.01089015230536461	0.04053959995508194	1.348752737045288	0.8289599418640137	0.07173344492912292	1.549055218696594	1.337041139602661	-0.2777804732322693	1.194346308708191	0.8892110586166382	-0.1097465604543686	1.691339492797852	1.317299604415894	-0.3417849242687225	1.565652847290039	0.865792989730835	-0.1314495503902435	1.338470101356506	0.8398149013519287	-0.1427214443683624	1.585507035255432	-0.01344267651438713	0.08643937110900879	1.468690991401672	0.4147002100944519	0.05803697556257248	1.64013683795929	-0.02030374109745026	0.1483375728130341	1.207192420959473	0.925068199634552	-0.02181569673120975	1.484523296356201	0.4106423854827881	0.1644950062036514	1.154330849647522	0.9639972448348999	0.1489283740520477	1.417453408241272	1.187445044517517	-0.2514638900756836	1.379093647003174	0.5288542509078979	0.02808981947600842	1.476246118545532	0.3066833317279816	0.03128145262598991	1.811229705810547	-0.02453278750181198	0.111275315284729	1.262686848640442	1.0054030418396	-0.196786567568779	1.447223305702209	0.8186957240104675	-0.14763543009758	1.45782458782196	0.8212906718254089	-0.06542325019836426	0.6008694171905518	0.3905975222587585	0.4679663777351379	1.389568448066711	0.8993605971336365	0.2871265709400177	1.465872287750244	1.229038834571838	0.1404305845499039	1.603862881660461	1.394219160079956	-0.1742734014987946	1.793872475624084	0.8888778686523438	-0.07875034958124161	1.748486757278442	1.380569815635681	-0.2315377593040466	1.783235430717468	0.6667801141738892	-0.36036217212677	1.790713906288147	0.7886243462562561	-0.2284507751464844	0.6444370746612549	0.4195942878723145	0.3870041966438293	1.097230553627014	0.5134820342063904	0.5348546504974365	0.6528902053833008	0.3103628158569336	0.4057515263557434	1.710523843765259	0.8670496940612793	-0.05112812668085098	1.092378735542297	0.4337631464004517	0.4391243457794189	1.178459286689758	0.9882445335388184	0.2136147022247314	1.694469928741455	1.236523628234863	-0.01282805576920509	1.227808475494385	0.7414736151695251	0.4166879653930664	0.926665723323822	0.4873671531677246	0.5312173962593079	0.5911155939102173	0.2217651903629303	0.4980383813381195	1.766131639480591	1.055850386619568	-0.04603083431720734	1.746880054473877	0.729803204536438	-0.3269882202148438	1.770010352134705	0.6737767457962036	-0.2636999487876892	1.493106365203857	0.9602862596511841	-0.0001712544180918485	1.278615355491638	1.138969540596008	0.1123450398445129	
539	1.494444444444444	1.524253964424133	1.312906265258789	-0.1256715804338455	1.580924153327942	1.147677540779114	-0.145164281129837	1.656820297241211	-0.01100795436650515	0.04044009372591972	1.349472045898438	0.8287496566772461	0.06980457156896591	1.549827098846436	1.339778184890747	-0.2768594026565552	1.191946148872375	0.8941400051116943	-0.1117307990789413	1.691661834716797	1.321983695030212	-0.3422685563564301	1.562328338623047	0.8644827604293823	-0.1337927281856537	1.334829092025757	0.8422056436538696	-0.1447154730558395	1.585449814796448	-0.01350398268550634	0.08635897934436798	1.468601584434509	0.414600670337677	0.0574817955493927	1.640097975730896	-0.0202552042901516	0.1482786983251572	1.204904675483704	0.9297699928283691	-0.02347585372626781	1.484407424926758	0.4104719758033752	0.1639982759952545	1.15654194355011	0.9646869301795959	0.1490742713212967	1.418755531311035	1.189603090286255	-0.2518008053302765	1.378766298294067	0.5291286110877991	0.02766765467822552	1.475903153419495	0.3065950274467468	0.03078819066286087	1.811175942420959	-0.02448611706495285	0.1110884621739388	1.261935114860535	1.009665727615356	-0.198082759976387	1.443357944488525	0.8193802237510681	-0.1496562212705612	1.454165577888489	0.8211104273796082	-0.06748715788125992	0.6037201285362244	0.3965774476528168	0.4711495041847229	1.392366409301758	0.8987282514572144	0.2847321331501007	1.469251751899719	1.229490399360657	0.1396343857049942	1.605361700057983	1.394963383674622	-0.1725198775529861	1.788980841636658	0.884991466999054	-0.08182643353939056	1.749508380889893	1.382927894592285	-0.2311193943023682	1.767379999160767	0.6614793539047241	-0.361830860376358	1.779903650283813	0.784307062625885	-0.2309824228286743	0.646927535533905	0.4252208173274994	0.3899202942848206	1.100799441337585	0.5150260329246521	0.5365524291992188	0.6544320583343506	0.3158775866031647	0.4083498120307922	1.70576012134552	0.8652421236038208	-0.05135809257626534	1.095204949378967	0.4348368644714355	0.4411571621894836	1.180827856063843	0.9890495538711548	0.2136891335248947	1.697087287902832	1.235244274139404	-0.0147332614287734	1.231112241744995	0.7419803738594055	0.4161599576473236	0.9304241538047791	0.4898988008499146	0.5335508584976196	0.592599630355835	0.2277485579252243	0.5010119080543518	1.7647705078125	1.05256986618042	-0.04997307062149048	1.732415914535522	0.7250602841377258	-0.3268667161464691	1.757676005363464	0.6693405508995056	-0.2643369138240814	1.493713855743408	0.9600090980529785	-0.002986254636198282	1.281344294548035	1.139922738075256	0.1128397732973099	
